<svg width="51" height="36" viewBox="0 0 51 36" fill="none" xmlns="http://www.w3.org/2000/svg">
<path d="M7.84575 15.9512C10.6399 15.9512 12.9115 13.7046 12.9115 10.9414C12.9115 8.17821 10.6399 5.93164 7.84575 5.93164C5.05166 5.93164 2.77997 8.17821 2.77997 10.9414C2.77997 13.7046 5.05166 15.9512 7.84575 15.9512ZM43.3063 15.9512C46.1004 15.9512 48.3721 13.7046 48.3721 10.9414C48.3721 8.17821 46.1004 5.93164 43.3063 5.93164C40.5122 5.93164 38.2405 8.17821 38.2405 10.9414C38.2405 13.7046 40.5122 15.9512 43.3063 15.9512ZM45.8392 18.4561H40.7734C39.3803 18.4561 38.1218 19.0118 37.2036 19.912C40.3935 21.642 42.6572 24.7652 43.148 28.4756H48.3721C49.7731 28.4756 50.905 27.3562 50.905 25.9707V23.4658C50.905 20.7026 48.6333 18.4561 45.8392 18.4561ZM25.576 18.4561C30.4756 18.4561 34.4412 14.5343 34.4412 9.68896C34.4412 4.84358 30.4756 0.921875 25.576 0.921875C20.6765 0.921875 16.7109 4.84358 16.7109 9.68896C16.7109 14.5343 20.6765 18.4561 25.576 18.4561ZM31.655 20.9609H30.998C29.3516 21.7437 27.5232 22.2134 25.576 22.2134C23.6289 22.2134 21.8083 21.7437 20.154 20.9609H19.4971C14.4629 20.9609 10.3786 25.0001 10.3786 29.9785V32.2329C10.3786 34.3073 12.0804 35.9902 14.178 35.9902H36.974C39.0716 35.9902 40.7734 34.3073 40.7734 32.2329V29.9785C40.7734 25.0001 36.6891 20.9609 31.655 20.9609ZM13.9484 19.912C13.0303 19.0118 11.7717 18.4561 10.3786 18.4561H5.31286C2.51876 18.4561 0.24707 20.7026 0.24707 23.4658V25.9707C0.24707 27.3562 1.37896 28.4756 2.77997 28.4756H7.99615C8.49481 24.7652 10.7586 21.642 13.9484 19.912Z" fill="white"/>
</svg>
